<svg xmlns="http://www.w3.org/2000/svg" viewBox="0 0 150.915 171.905">
  <defs>
    <style>
      .cls-1 {
        fill: #60269e;
      }
    </style>
  </defs>
  <path id="Path_165" data-name="Path 165" class="cls-1" d="M396.343,116.073a49.627,49.627,0,0,1-8.684,8.683l17.462,17.462A73.675,73.675,0,0,1,301.286,38.4l26.267,26.267a36.791,36.791,0,0,0,59.983,42.617l-8.819-8.819a24.582,24.582,0,0,1-42.345-24.978l9.307,9.308a12.275,12.275,0,1,0,11.872-9.118,12.379,12.379,0,0,0-3.188.421l-9.307-9.308a24.558,24.558,0,0,1,29.876,3.785l8.629-8.629a36.755,36.755,0,0,0-47.325-3.975l-8.819-8.819a49.135,49.135,0,0,1,64.868,4.057h0l8.684-8.683a61.4,61.4,0,0,0-82.276-4.111l-8.724-8.724a73.7,73.7,0,0,1,99.683,4.152h0l8.683-8.683a85.967,85.967,0,1,0,4.179,117.077Z" transform="translate(-271.6)"/>
</svg>
