<svg id="Group_116" data-name="Group 116" xmlns="http://www.w3.org/2000/svg" viewBox="0 0 536.805 642.017">
  <defs>
    <style>
      .cls-1 {
        fill: #5f259f;
      }
    </style>
  </defs>
  <g id="Group_113" data-name="Group 113" transform="translate(0 426.029)">
    <path id="Path_106" data-name="Path 106" class="cls-1" d="M0,1484.343A44.038,44.038,0,0,1,44.043,1440.3c20.942,0,37.151,12.187,42.742,30.26H75.013c-5.738-12.63-16.357-19.936-30.969-19.936-18.073,0-32.567,14.642-32.567,33.72,0,18.931,14.494,33.424,32.833,33.424,18.517,0,29.254-11.477,31.709-26.532H43.748v-10.619H87.791v3.727c0,23.663-16.624,43.9-43.452,43.9C19.522,1528.209,0,1508.717,0,1484.343Z" transform="translate(0 -1440.3)"/>
    <path id="Path_107" data-name="Path 107" class="cls-1" d="M412.009,1444.2h11.773l31.857,85.484H444.162l-26.118-70.576-26.118,70.576H380.3Z" transform="translate(-267.81 -1443.046)"/>
    <path id="Path_108" data-name="Path 108" class="cls-1" d="M733.6,1444.2h29.845c16.653,0,27.39,8.755,27.39,22.953,0,7.9-3.579,14.2-10.323,17.925,8.164,3.431,12.9,10.471,12.9,20.232,0,15.352-11.181,24.373-27.982,24.373H733.6Zm11.063,10.175v26.118h19.789c10.323,0,15.352-5.59,15.352-13.34s-5.886-12.778-16.062-12.778Zm0,36.589v28.544h21.09c10.175,0,16.653-5.886,16.653-14.346,0-8.608-5.295-14.2-17.215-14.2Z" transform="translate(-516.607 -1443.046)"/>
    <path id="Path_109" data-name="Path 109" class="cls-1" d="M1060.7,1444.2h11.033v74.865h36.294v10.619H1060.7Z" transform="translate(-746.953 -1443.046)"/>
    <path id="Path_110" data-name="Path 110" class="cls-1" d="M1335.4,1444.2h51.5v10.323h-40.435v27.095H1386.9v10.323h-40.435v27.242H1386.9v10.471h-51.5Z" transform="translate(-940.399 -1443.046)"/>
    <path id="Path_111" data-name="Path 111" class="cls-1" d="M1621.9,1502.416h12.187v.71c0,9.051,6.892,14.642,17.215,14.642,8.755,0,16.062-6.034,16.209-14.346.148-8.9-7.6-12.039-18.073-15.647-13.044-4.437-24.965-8.608-24.965-25.379,0-12.9,11.625-22.1,27.39-22.1,15.914,0,27.242,8.9,27.094,23.663h-11.625v-.858c0-7.6-6.744-13.044-15.647-13.044-9.17,0-15.766,5.176-15.766,12.335,0,9.613,8.164,12.187,19.374,16.209,14.346,4.733,23.663,10.175,23.663,25.231,0,12.778-11.891,24.255-27.094,24.255C1634.974,1528.091,1621.9,1519.04,1621.9,1502.416Z" transform="translate(-1142.155 -1440.3)"/>
  </g>
  <g id="Group_115" data-name="Group 115" transform="translate(45.404 554.225)">
    <path id="Path_112" data-name="Path 112" class="cls-1" d="M153.5,1917.743c0-24.255,20.084-44.043,44.31-44.043a43.514,43.514,0,0,1,41.44,30.969H227.478c-5.443-12.334-16.653-20.646-29.993-20.646-19.522,0-32.715,15.766-32.715,33.72,0,17.629,13.34,33.425,32.567,33.425,13.34,0,23.811-7.306,29.55-19.789h11.95c-5.738,17.777-21.386,30.112-41.026,30.112C172.726,1961.491,153.5,1941.969,153.5,1917.743Z" transform="translate(-153.5 -1873.7)"/>
    <path id="Path_113" data-name="Path 113" class="cls-1" d="M562,1877.6h26.533c17.511,0,29.7,12.187,29.7,27.686a26.21,26.21,0,0,1-19.789,25.823l20.942,31.975H606.191l-25.556-40.021h6.448c12.778,0,19.641-9.317,19.641-17.777,0-10.175-6.034-17.363-18.783-17.363H573.3v75.161H562Z" transform="translate(-441.169 -1876.446)"/>
    <path id="Path_114" data-name="Path 114" class="cls-1" d="M875.5,1877.6H927v10.323H886.563v27.094H927v10.323H886.563v27.242H927v10.471H875.5Z" transform="translate(-661.938 -1876.446)"/>
    <path id="Path_115" data-name="Path 115" class="cls-1" d="M1157.5,1935.816h12.187v.71c0,9.051,6.892,14.642,17.215,14.642,8.755,0,16.062-6.034,16.209-14.346.148-8.9-7.6-12.039-18.073-15.647-13.044-4.437-24.965-8.608-24.965-25.379,0-12.9,11.625-22.1,27.39-22.1,15.914,0,27.242,8.9,27.095,23.663h-11.625v-.858c0-7.6-6.744-13.044-15.647-13.044-9.17,0-15.766,5.177-15.766,12.335,0,9.613,8.164,12.187,19.374,16.209,14.346,4.733,23.663,10.175,23.663,25.231,0,12.778-11.891,24.255-27.095,24.255C1170.544,1961.491,1157.5,1952.44,1157.5,1935.816Z" transform="translate(-860.525 -1873.7)"/>
    <g id="Group_114" data-name="Group 114" transform="translate(385.062 1.065)">
      <path id="Path_116" data-name="Path 116" class="cls-1" d="M1480.265,1887.919H1455.3V1877.3h60.963v10.619h-24.817v74.865h-11.181v-74.865Z" transform="translate(-1455.3 -1877.3)"/>
    </g>
  </g>
  <path id="Path_117" data-name="Path 117" class="cls-1" d="M543.551,253.05a108.176,108.176,0,0,1-18.931,18.931l38.068,38.068a160.618,160.618,0,0,1-226.37-226.34l57.265,57.265a80.207,80.207,0,0,0,130.77,92.908l-19.227-19.226A53.59,53.59,0,0,1,412.811,160.2L433.1,180.492a26.761,26.761,0,1,0,25.882-19.877,26.987,26.987,0,0,0-6.951.917l-20.291-20.291a53.539,53.539,0,0,1,65.133,8.253l18.812-18.812a80.129,80.129,0,0,0-103.172-8.667l-19.227-19.226a107.119,107.119,0,0,1,141.418,8.844h0L553.638,92.7a133.858,133.858,0,0,0-179.368-8.963L355.25,64.719a160.665,160.665,0,0,1,217.318,9.051h0L591.5,54.84a187.416,187.416,0,1,0,9.11,255.239Z" transform="translate(-191.263)"/>
</svg>
