<svg id="Group_125" data-name="Group 125" xmlns="http://www.w3.org/2000/svg" viewBox="0 0 950 51.113">
  <defs>
    <style>
      .cls-1 {
        fill: #fff;
      }
    </style>
  </defs>
  <g id="Group_125-2" data-name="Group 125" transform="translate(542.469 7.411)">
    <path id="Path_142" data-name="Path 142" class="cls-1" d="M4457.5,64.7h11.318c7.484,0,12.729,5.367,12.729,12.194,0,6.888-5.245,12.255-12.791,12.255h-6.718V99.81H4457.5Zm4.539,4.247V84.853h6.426c5.245,0,8.422-3.481,8.422-7.959s-3.177-7.959-8.422-7.959h-6.426Z" transform="translate(-4457.5 -64.238)"/>
    <path id="Path_143" data-name="Path 143" class="cls-1" d="M4765.4,64.7h10.9c7.192,0,12.194,5,12.194,11.367a10.759,10.759,0,0,1-8.129,10.6l8.6,13.143h-5.415l-10.49-16.441h2.652c5.245,0,8.069-3.833,8.069-7.3,0-4.186-2.47-7.132-7.715-7.132h-6.012V99.81h-4.649V64.7Z" transform="translate(-4727.929 -64.238)"/>
    <path id="Path_144" data-name="Path 144" class="cls-1" d="M5078.5,64.7h21.151v4.247h-16.612V80.083h16.612V84.33h-16.612v11.2h16.612v4.3H5078.5Z" transform="translate(-5002.925 -64.238)"/>
    <path id="Path_145" data-name="Path 145" class="cls-1" d="M5381,64.7h11.318c7.485,0,12.729,5.367,12.729,12.194,0,6.888-5.245,12.255-12.791,12.255h-6.718V99.81H5381Zm4.539,4.247V84.853h6.426c5.245,0,8.421-3.481,8.421-7.959s-3.176-7.959-8.421-7.959h-6.426Z" transform="translate(-5268.612 -64.238)"/>
    <path id="Path_146" data-name="Path 146" class="cls-1" d="M5999.5,64.7h10.9c7.192,0,12.194,5,12.194,11.367a10.759,10.759,0,0,1-8.13,10.6l8.6,13.143h-5.416l-10.49-16.441h2.653c5.245,0,8.068-3.833,8.068-7.3,0-4.186-2.471-7.132-7.716-7.132h-6.012V99.81h-4.649V64.7Z" transform="translate(-5811.841 -64.238)"/>
    <path id="Path_147" data-name="Path 147" class="cls-1" d="M6300.609,64.7h4.831l13.083,35.11h-4.709l-10.722-28.989L6292.37,99.81H6287.6Z" transform="translate(-6064.88 -64.238)"/>
    <path id="Path_148" data-name="Path 148" class="cls-1" d="M5653.721,64.7h4.832l13.082,35.11h-4.709l-10.734-28.976L5645.47,99.822H5640.7Z" transform="translate(-5496.706 -64.238)"/>
    <path id="Path_149" data-name="Path 149" class="cls-1" d="M6611.847,69.057H6601.6V64.7h25.045v4.357h-10.2V99.81h-4.6Z" transform="translate(-6340.667 -64.238)"/>
    <path id="Path_150" data-name="Path 150" class="cls-1" d="M6894.5,78.923a18,18,0,1,1,17.975,18.023A17.973,17.973,0,0,1,6894.5,78.923Zm31.289,0a13.322,13.322,0,1,0-26.628,0c0,7.594,5.769,13.788,13.313,13.788S6925.789,86.517,6925.789,78.923Z" transform="translate(-6597.922 -60.9)"/>
    <path id="Path_151" data-name="Path 151" class="cls-1" d="M7303.1,64.7H7314c7.192,0,12.194,5,12.194,11.367a10.759,10.759,0,0,1-8.13,10.6l8.6,13.143h-5.416l-10.49-16.441h2.653c5.246,0,8.069-3.833,8.069-7.3,0-4.186-2.471-7.132-7.716-7.132h-6.012V99.81h-4.649V64.7Z" transform="translate(-6956.795 -64.238)"/>
    <path id="Path_152" data-name="Path 152" class="cls-1" d="M7590.749,83.259,7579.2,64.7h5.014l8.714,14.2,8.835-14.2h5.063l-11.549,18.559V99.81h-4.539V83.259Z" transform="translate(-7199.295 -64.238)"/>
  </g>
  <path id="Path_153" data-name="Path 153" class="cls-1" d="M567.7,79a18.1,18.1,0,0,1,18.1-18.1c8.6,0,15.273,5.014,17.573,12.438h-4.831a13.247,13.247,0,0,0-12.742-8.19,13.805,13.805,0,0,0,.122,27.6c7.606,0,12.024-4.722,13.034-10.9H585.687V77.463h18.1V79c0,9.724-6.839,18.048-17.865,18.048A18.024,18.024,0,0,1,567.7,79Z" transform="translate(-498.612 -53.489)"/>
  <path id="Path_154" data-name="Path 154" class="cls-1" d="M960.822,64.7h4.831l13.095,35.146h-4.722L963.292,70.834,952.57,99.846H947.8Z" transform="translate(-832.454 -56.826)"/>
  <path id="Path_155" data-name="Path 155" class="cls-1" d="M1300.612,64.7h12.267c6.839,0,11.257,3.6,11.257,9.432a8.027,8.027,0,0,1-4.247,7.375,8.458,8.458,0,0,1,5.306,8.312c0,6.3-4.6,10.028-11.5,10.028H1300.6V64.7Zm4.539,4.186V79.62h8.142c4.247,0,6.3-2.3,6.3-5.489s-2.422-5.245-6.608-5.245Zm0,15.042V95.66h8.665c4.186,0,6.839-2.422,6.839-5.89,0-3.541-2.178-5.842-7.071-5.842Z" transform="translate(-1142.319 -56.826)"/>
  <path id="Path_156" data-name="Path 156" class="cls-1" d="M1627.5,64.7h4.539V95.477h14.92v4.369H1627.5Z" transform="translate(-1429.436 -56.826)"/>
  <path id="Path_157" data-name="Path 157" class="cls-1" d="M1901.9,64.7h21.163v4.247h-16.624V80.095h16.624v4.247h-16.624V95.55h16.624v4.308H1901.9Z" transform="translate(-1670.442 -56.826)"/>
  <path id="Path_158" data-name="Path 158" class="cls-1" d="M2188.2,86.332h5.014v.292c0,3.712,2.835,6.012,7.071,6.012,3.6,0,6.608-2.47,6.657-5.89.061-3.651-3.128-4.953-7.424-6.426-5.367-1.825-10.259-3.541-10.259-10.442,0-5.306,4.771-9.079,11.257-9.079,6.547,0,11.208,3.651,11.148,9.724h-4.771v-.353c0-3.128-2.775-5.367-6.426-5.367-3.772,0-6.486,2.118-6.486,5.075,0,3.955,3.359,5.014,7.959,6.657,5.89,1.947,9.724,4.186,9.724,10.381,0,5.245-4.892,9.967-11.147,9.967C2193.567,96.9,2188.2,93.172,2188.2,86.332Z" transform="translate(-1921.9 -53.401)"/>
  <path id="Path_159" data-name="Path 159" class="cls-1" d="M2677.9,79a18.236,18.236,0,0,1,18.218-18.1,17.9,17.9,0,0,1,17.038,12.742h-4.832c-2.239-5.075-6.839-8.495-12.328-8.495-8.02,0-13.448,6.487-13.448,13.861a13.452,13.452,0,0,0,13.387,13.74c5.489,0,9.785-3.006,12.146-8.142h4.892a17.459,17.459,0,0,1-16.867,12.377A17.918,17.918,0,0,1,2677.9,79Z" transform="translate(-2352.004 -53.489)"/>
  <path id="Path_160" data-name="Path 160" class="cls-1" d="M3086,64.7h10.9c7.192,0,12.206,5.014,12.206,11.379a10.77,10.77,0,0,1-8.142,10.612l8.6,13.143h-5.428l-10.478-16.441h2.653c5.245,0,8.081-3.834,8.081-7.314,0-4.186-2.471-7.132-7.728-7.132h-6.012v30.9H3086Z" transform="translate(-2710.44 -56.826)"/>
  <path id="Path_161" data-name="Path 161" class="cls-1" d="M3399.3,64.7h21.163v4.247h-16.624V80.095h16.624v4.247h-16.624V95.55h16.624v4.308H3399.3Z" transform="translate(-2985.611 -56.826)"/>
  <path id="Path_162" data-name="Path 162" class="cls-1" d="M3681,86.332h5.014v.292c0,3.712,2.836,6.012,7.071,6.012,3.6,0,6.608-2.47,6.657-5.89.061-3.651-3.128-4.953-7.424-6.426-5.367-1.825-10.259-3.541-10.259-10.442,0-5.306,4.771-9.079,11.257-9.079,6.547,0,11.208,3.651,11.147,9.724h-4.771v-.353c0-3.128-2.775-5.367-6.426-5.367-3.773,0-6.486,2.118-6.486,5.075,0,3.955,3.359,5.014,7.959,6.657,5.89,1.947,9.724,4.186,9.724,10.381,0,5.245-4.892,9.967-11.147,9.967C3686.367,96.9,3681,93.172,3681,86.332Z" transform="translate(-3233.029 -53.401)"/>
  <circle id="Ellipse_4" data-name="Ellipse 4" class="cls-1" cx="3.651" cy="3.651" r="3.651" transform="translate(304.428 21.845)"/>
  <g id="Group_126" data-name="Group 126" transform="translate(484.188 7.85)">
    <path id="Path_163" data-name="Path 163" class="cls-1" d="M3988.858,68.857H3978.6V64.5h25.058v4.369h-10.2V99.646h-4.6Z" transform="translate(-3978.6 -64.5)"/>
  </g>
  <circle id="Ellipse_5" data-name="Ellipse 5" class="cls-1" cx="3.651" cy="3.651" r="3.651" transform="translate(518.811 21.845)"/>
  <path id="Path_164" data-name="Path 164" class="cls-1" d="M37.094,34.514a14.79,14.79,0,0,1-2.58,2.58l5.2,5.2A21.913,21.913,0,0,1,8.823,11.415l7.813,7.813A10.936,10.936,0,0,0,34.465,31.9l-2.617-2.617a7.308,7.308,0,0,1-12.584-7.436l2.763,2.763a3.475,3.475,0,0,0-.122.937,3.651,3.651,0,1,0,3.651-3.651,4.056,4.056,0,0,0-.949.122l-2.763-2.763a7.319,7.319,0,0,1,8.884,1.132L33.3,17.817a10.9,10.9,0,0,0-14.068-1.18L16.612,14.02a14.607,14.607,0,0,1,19.277,1.2h0l2.58-2.58a18.253,18.253,0,0,0-24.461-1.217L11.4,8.835a21.915,21.915,0,0,1,29.646,1.229h0l2.58-2.58A25.559,25.559,0,1,0,44.87,42.29Z"/>
</svg>
