<svg id="Group_123" data-name="Group 123" xmlns="http://www.w3.org/2000/svg" viewBox="0 0 398 39.947">
  <defs>
    <style>
      .cls-1 {
        fill: #fff;
      }
    </style>
  </defs>
  <g id="Group_122" data-name="Group 122" transform="translate(53.996 6.783)">
    <path id="Path_130" data-name="Path 130" class="cls-1" d="M567.7,75.043A14.146,14.146,0,0,1,581.843,60.9c6.724,0,11.937,3.919,13.734,9.721H591.8a10.353,10.353,0,0,0-9.958-6.4,10.79,10.79,0,0,0,.1,21.572c5.945,0,9.4-3.69,10.187-8.522H581.758V73.845H595.9v1.2c0,7.6-5.345,14.105-13.963,14.105A14.087,14.087,0,0,1,567.7,75.043Z" transform="translate(-567.7 -60.89)"/>
    <path id="Path_131" data-name="Path 131" class="cls-1" d="M957.977,64.7h3.776l10.234,27.469H968.3l-8.389-22.675-8.379,22.675H947.8Z" transform="translate(-911.648 -64.329)"/>
    <path id="Path_132" data-name="Path 132" class="cls-1" d="M1300.609,64.7h9.587c5.345,0,8.8,2.815,8.8,7.371a6.274,6.274,0,0,1-3.319,5.764,6.61,6.61,0,0,1,4.147,6.5c0,4.927-3.6,7.837-8.988,7.837H1300.6V64.7Zm3.548,3.272v8.389h6.363c3.319,0,4.927-1.8,4.927-4.29s-1.893-4.1-5.165-4.1h-6.125Zm0,11.756V88.9h6.772c3.272,0,5.345-1.893,5.345-4.6,0-2.768-1.7-4.565-5.526-4.565Z" transform="translate(-1230.892 -64.329)"/>
    <path id="Path_133" data-name="Path 133" class="cls-1" d="M1627.5,64.7h3.548V88.754h11.661v3.415H1627.5Z" transform="translate(-1526.699 -64.329)"/>
    <path id="Path_134" data-name="Path 134" class="cls-1" d="M1901.9,64.7h16.54v3.319h-12.992v8.712h12.992v3.319h-12.992v8.76h12.992v3.367H1901.9Z" transform="translate(-1775 -64.329)"/>
    <path id="Path_135" data-name="Path 135" class="cls-1" d="M2188.2,80.755h3.919v.228c0,2.9,2.216,4.7,5.526,4.7,2.815,0,5.165-1.931,5.2-4.6.048-2.853-2.444-3.871-5.8-5.022-4.194-1.427-8.018-2.768-8.018-8.161,0-4.147,3.729-7.1,8.8-7.1,5.117,0,8.76,2.853,8.712,7.6h-3.729v-.276c0-2.444-2.169-4.194-5.022-4.194-2.948,0-5.07,1.655-5.07,3.966,0,3.091,2.625,3.919,6.22,5.2,4.6,1.522,7.6,3.272,7.6,8.113,0,4.1-3.824,7.79-8.712,7.79C2192.395,89.01,2188.2,86.1,2188.2,80.755Z" transform="translate(-2034.069 -60.8)"/>
    <path id="Path_136" data-name="Path 136" class="cls-1" d="M2677.9,75.043A14.252,14.252,0,0,1,2692.138,60.9a13.989,13.989,0,0,1,13.316,9.958h-3.776A10.55,10.55,0,1,0,2692,85.791a10.15,10.15,0,0,0,9.492-6.363h3.823a13.645,13.645,0,0,1-13.183,9.673A14,14,0,0,1,2677.9,75.043Z" transform="translate(-2477.193 -60.89)"/>
    <path id="Path_137" data-name="Path 137" class="cls-1" d="M3086,64.7h8.522c5.621,0,9.54,3.919,9.54,8.893a8.417,8.417,0,0,1-6.363,8.294l6.725,10.272h-4.242l-8.189-12.85h2.073c4.1,0,6.315-3,6.315-5.716,0-3.272-1.931-5.574-6.04-5.574h-4.7V92.169H3086Z" transform="translate(-2846.477 -64.329)"/>
    <path id="Path_138" data-name="Path 138" class="cls-1" d="M3399.3,64.7h16.54v3.319h-12.992v8.712h12.992v3.319h-12.992v8.76h12.992v3.367H3399.3Z" transform="translate(-3129.978 -64.329)"/>
    <path id="Path_139" data-name="Path 139" class="cls-1" d="M3681,80.755h3.919v.228c0,2.9,2.216,4.7,5.526,4.7,2.815,0,5.165-1.931,5.2-4.6.048-2.853-2.444-3.871-5.8-5.022-4.195-1.427-8.018-2.768-8.018-8.161,0-4.147,3.728-7.1,8.8-7.1,5.117,0,8.76,2.853,8.712,7.6h-3.729v-.276c0-2.444-2.168-4.194-5.022-4.194-2.948,0-5.069,1.655-5.069,3.966,0,3.091,2.625,3.919,6.22,5.2,4.6,1.522,7.6,3.272,7.6,8.113,0,4.1-3.823,7.79-8.712,7.79C3685.195,89.01,3681,86.1,3681,80.755Z" transform="translate(-3384.885 -60.8)"/>
    <circle id="Ellipse_3" data-name="Ellipse 3" class="cls-1" cx="2.853" cy="2.853" r="2.853" transform="translate(183.929 11.29)"/>
    <g id="Group_121" data-name="Group 121" transform="translate(324.421 0.352)">
      <path id="Path_140" data-name="Path 140" class="cls-1" d="M3986.618,67.905H3978.6V64.5h19.584v3.415h-7.971V91.969h-3.6Z" transform="translate(-3978.6 -64.5)"/>
    </g>
  </g>
  <path id="Path_141" data-name="Path 141" class="cls-1" d="M28.99,26.974a11.559,11.559,0,0,1-2.016,2.016l4.061,4.061A17.126,17.126,0,0,1,6.9,8.922L13,15.028a8.547,8.547,0,0,0,13.934,9.9l-2.045-2.045a5.712,5.712,0,0,1-9.835-5.811l2.159,2.159a2.716,2.716,0,0,0-.1.732,2.853,2.853,0,1,0,2.853-2.853,3.17,3.17,0,0,0-.742.1l-2.159-2.159a5.72,5.72,0,0,1,6.943.885l2.007-2.007a8.521,8.521,0,0,0-11-.923l-2.045-2.045a11.416,11.416,0,0,1,15.066.942h0l2.016-2.016a14.266,14.266,0,0,0-19.118-.951L8.912,6.905a17.128,17.128,0,0,1,23.17.961h0L34.1,5.849a19.976,19.976,0,1,0,.97,27.2Z"/>
</svg>
